<?xml version="1.0" encoding="utf-8"?>
<!-- Generator: Adobe Illustrator 22.0.1, SVG Export Plug-In . SVG Version: 6.00 Build 0)  -->
<svg version="1.1" id="Layer_1" xmlns="http://www.w3.org/2000/svg" xmlns:xlink="http://www.w3.org/1999/xlink" x="0px" y="0px"
	 viewBox="0 0 266.9 266.9" style="enable-background:new 0 0 266.9 266.9;" xml:space="preserve">
<style type="text/css">
	.st0{fill:none;stroke:#FCFCFC;stroke-width:25;stroke-miterlimit:10;}
	.st1{fill:#FFFFFF;}
</style>
<path id="Blue_1_" class="st0" d="M241.3,254.7c7.4,0,13.4-6,13.4-13.4V25.6c0-7.4-6-13.4-13.4-13.4H25.6c-7.4,0-13.4,6-13.4,13.4
	v215.7c0,7.4,6,13.4,13.4,13.4H241.3z"/>
<path id="f" class="st1" d="M180.7,251.2v-89.6h30.1l4.5-34.9h-34.6v-22.3c0-10.1,2.8-17,17.3-17l18.5,0V56
	c-3.2-0.4-14.2-1.4-27-1.4c-26.7,0-44.9,16.3-44.9,46.2v25.8h-30.2v34.9h30.2v89.6H180.7z"/>
</svg>
